<svg width="548" height="515" viewBox="0 0 548 515" fill="none" xmlns="http://www.w3.org/2000/svg">
<path d="M34.0024 336.369C32.5837 337.26 30.1945 338.746 26.8345 340.826C23.512 342.905 20.88 344.539 18.9387 345.728C18.8641 345.282 18.7894 344.799 18.7147 344.279C18.6401 343.797 18.5654 343.388 18.4907 343.054C18.4534 342.757 18.4347 342.478 18.4347 342.218C17.9868 327.512 17.7814 318.079 17.8188 313.919C17.8561 308.98 17.9494 301.887 18.0988 292.639C18.2481 283.392 18.3414 276.726 18.3787 272.641C18.3787 271.564 18.6027 270.71 19.0507 270.078C19.5361 269.447 20.2827 268.853 21.2907 268.296C25.0239 266.253 30.6051 263.171 38.0343 259.048C45.5007 254.926 51.1006 251.844 54.8338 249.801C56.2525 249.021 57.7644 248.204 59.3697 247.35C61.0124 246.459 62.879 245.456 64.9696 244.342C67.0975 243.228 68.8522 242.299 70.2335 241.556C70.3828 246.236 70.2521 253.608 69.8415 263.672C69.4308 273.699 69.4121 281.368 69.7855 286.679C68.0682 287.682 65.6602 289.074 62.5617 290.857C59.5004 292.602 56.7191 294.199 54.2179 295.648C51.7539 297.059 49.402 298.396 47.162 299.658C46.826 299.844 46.0047 300.327 44.6981 301.107C43.4288 301.85 42.3648 302.444 41.5062 302.889C40.6849 303.298 39.8449 303.669 38.9862 304.004C36.933 304.783 35.5517 305.898 34.8423 307.346C34.133 308.757 33.8344 310.614 33.9464 312.917C34.0584 314.811 34.1144 316.816 34.1144 318.933C34.1144 321.013 34.0957 323.389 34.0584 326.063C34.021 328.737 34.0024 330.724 34.0024 332.024V336.369ZM34.8423 290.188C35.141 290.151 35.4957 290.133 35.9063 290.133C36.317 290.095 36.653 290.058 36.9143 290.021C37.2129 289.984 37.4556 289.91 37.6423 289.798C43.2795 286.679 48.786 283.522 54.1619 280.328C54.5352 280.105 54.8898 279.753 55.2258 279.27C55.5618 278.787 55.7298 278.341 55.7298 277.933C55.7298 277.524 55.7672 276.447 55.8418 274.702C55.9538 272.956 55.9538 271.508 55.8418 270.357C55.7298 269.206 55.4685 268.017 55.0578 266.792C54.6472 266.94 54.0872 267.126 53.3779 267.349C52.6686 267.534 52.0526 267.72 51.5299 267.906C51.0446 268.054 50.5779 268.24 50.13 268.463C49.458 268.797 48.7487 269.187 48.002 269.633C47.2554 270.041 46.4154 270.524 45.4821 271.081C44.5861 271.601 43.8955 272.009 43.4101 272.307C42.4022 272.901 41.1142 273.606 39.5462 274.423C38.3889 275.018 37.5863 275.445 37.1383 275.705C36.6903 275.927 36.1863 276.336 35.6263 276.93C35.1037 277.487 34.7863 277.914 34.6743 278.211C34.5623 278.509 34.4503 279.177 34.3384 280.217C34.2637 281.22 34.245 282.129 34.2824 282.946C34.357 283.726 34.469 285.082 34.6183 287.013C34.7303 288.35 34.805 289.408 34.8423 290.188ZM1.69116 261.388C4.75242 263.171 9.00831 265.622 14.4588 268.741V344.391C10.7256 343.24 6.37638 340.863 1.41117 337.26C0.589852 336.629 0.179196 335.199 0.179196 332.971C0.179196 331.188 0.197862 329.294 0.235194 327.289C0.309859 325.283 0.384524 323.074 0.459189 320.66C0.571186 318.209 0.645851 316.315 0.683183 314.978C0.757848 309.927 0.739182 306.826 0.627185 305.675C0.25386 302.407 0.0485321 298.841 0.0111997 294.979C-0.0261327 291.117 0.0298659 287.7 0.179196 284.729C0.328525 281.721 0.515187 278.119 0.739182 273.922C0.963176 269.688 1.09384 266.216 1.13117 263.505C1.13117 263.468 1.31783 262.762 1.69116 261.388ZM2.92313 257.656C24.3146 246.774 40.6289 238.4 51.8659 232.532C54.1432 231.344 56.3645 231.399 58.5298 232.699C58.9031 232.922 62.1883 234.779 68.3855 238.27C51.9966 247.257 34.9917 256.597 17.3708 266.29C14.4588 264.545 9.64296 261.667 2.92313 257.656Z" fill="black"/>
<path d="M98.2829 227.748C100.151 226.739 102.748 225.338 106.074 223.545C109.437 221.715 111.885 220.388 113.417 219.566C113.454 220.052 113.492 220.669 113.529 221.416C113.566 222.125 113.604 222.742 113.641 223.265C113.678 223.751 113.697 224.217 113.697 224.666C113.697 229.971 113.697 237.928 113.697 248.537C113.734 259.147 113.753 267.123 113.753 272.465C113.753 272.577 113.734 272.913 113.697 273.474C113.697 273.997 113.697 274.37 113.697 274.594C113.734 274.781 113.79 275.099 113.865 275.547C113.977 275.995 114.108 276.35 114.258 276.612C114.444 276.873 114.706 277.191 115.042 277.564C115.416 277.901 115.864 278.199 116.388 278.461C121.47 275.659 124.627 273.903 125.86 273.193C126.682 272.708 129.634 270.859 134.716 267.646C134.716 235.257 134.698 217.063 134.66 213.066C134.623 211.161 134.903 209.629 135.501 208.471C136.136 207.276 137.257 206.323 138.864 205.613C139.798 205.202 140.751 204.735 141.723 204.212C142.694 203.652 143.871 202.961 145.254 202.139C146.674 201.317 147.72 200.719 148.393 200.346C148.617 202.289 148.729 203.297 148.729 203.372C148.991 218.651 149.346 241.215 149.794 271.064C149.794 272.222 149.813 272.913 149.85 273.137C150.187 275.416 149.122 277.209 146.655 278.517C138.883 282.552 131.465 286.493 124.403 290.341C121.899 291.723 118.144 293.778 113.137 296.505C108.167 299.269 104.43 301.343 101.926 302.725C101.739 302.837 100.525 303.304 98.2829 304.126V227.748ZM81.5234 220.687C88.287 224.946 92.2667 227.486 93.4624 228.308C93.8361 228.57 94.135 229.018 94.3592 229.653C94.6208 230.288 94.7516 230.886 94.7516 231.446C94.7142 235.033 94.6208 240.132 94.4714 246.744C94.3219 253.319 94.2285 257.653 94.1911 259.745C94.1537 261.239 94.135 265.797 94.135 273.418V303.229C89.6883 301.436 85.391 299.269 81.2432 296.729C80.72 296.43 80.309 295.814 80.01 294.88C79.7485 293.946 79.6177 293.012 79.6177 292.078C79.7298 283.71 80.01 271.288 80.4584 254.813C80.5332 251.227 80.8882 239.852 81.5234 220.687ZM117.34 273.418V200.346C118.947 201.168 121.227 202.326 124.179 203.82C127.131 205.277 129.373 206.398 130.905 207.182V219.679C130.905 244.521 130.924 258.493 130.961 261.594C130.998 263.238 130.718 264.583 130.12 265.629C129.56 266.637 128.551 267.478 127.093 268.15C126.159 268.561 125.188 269.047 124.179 269.607C123.17 270.13 121.974 270.784 120.591 271.568C119.246 272.353 118.162 272.969 117.34 273.418ZM119.246 196.872C119.769 196.535 120.591 196.031 121.712 195.359C122.833 194.686 123.768 194.107 124.515 193.622C125.262 193.099 125.935 192.557 126.533 191.996C128.439 190.241 130.438 189.363 132.53 189.363C134.623 189.325 136.697 189.998 138.752 191.38C139.537 191.866 140.396 192.351 141.33 192.837C142.265 193.323 143.386 193.883 144.694 194.518C146.001 195.116 147.066 195.639 147.889 196.087C146.88 196.685 145.46 197.544 143.629 198.665C141.798 199.748 140.191 200.701 138.808 201.523C137.426 202.307 136.099 203.017 134.829 203.652C134.044 204.063 132.773 203.839 131.017 202.98C129.933 202.457 126.01 200.421 119.246 196.872ZM95.3121 224.89C94.3406 224.292 92.9953 223.452 91.2764 222.368C89.5575 221.285 87.9694 220.295 86.512 219.398C85.092 218.502 83.7094 217.643 82.3642 216.821C82.8126 216.559 84.4755 215.607 87.3528 213.963C90.2675 212.282 92.4909 211.068 94.0229 210.32C95.3682 209.685 96.6574 209.667 97.8905 210.264C99.572 211.049 103.72 213.234 110.334 216.821C101.926 221.341 96.9189 224.031 95.3121 224.89Z" fill="black"/>
<path d="M341.44 84.0524C343.308 83.05 345.906 81.6579 349.231 79.8759C352.594 78.0568 355.042 76.7389 356.574 75.9222C356.611 76.4048 356.649 77.0173 356.686 77.7598C356.723 78.4652 356.761 79.0777 356.798 79.5975C356.836 80.0801 356.854 80.5441 356.854 80.9896C356.854 86.2613 356.854 94.1687 356.854 104.712C356.892 115.255 356.91 123.181 356.91 128.49C356.91 128.601 356.892 128.936 356.854 129.492C356.854 130.012 356.854 130.383 356.854 130.606C356.892 130.792 356.948 131.107 357.022 131.553C357.135 131.998 357.265 132.351 357.415 132.611C357.602 132.871 357.863 133.186 358.2 133.558C358.573 133.892 359.022 134.189 359.545 134.449C364.627 131.664 367.784 129.919 369.017 129.214C369.84 128.731 372.792 126.894 377.874 123.701C377.874 91.5144 377.855 73.4349 377.818 69.4626C377.78 67.5692 378.06 66.0471 378.658 64.8963C379.294 63.7083 380.415 62.7616 382.021 62.0563C382.956 61.6479 383.909 61.1839 384.88 60.6641C385.852 60.1072 387.029 59.4205 388.411 58.6037C389.831 57.787 390.878 57.193 391.55 56.8218C391.774 58.7522 391.887 59.7546 391.887 59.8288C392.148 75.0126 392.503 97.4357 392.952 127.098C392.952 128.249 392.97 128.936 393.008 129.158C393.344 131.423 392.279 133.205 389.813 134.504C382.04 138.514 374.623 142.43 367.56 146.254C365.056 147.628 361.301 149.669 356.294 152.38C351.324 155.127 347.587 157.187 345.083 158.561C344.897 158.672 343.682 159.136 341.44 159.953V84.0524ZM324.681 77.0359C331.444 81.2681 335.424 83.7925 336.62 84.6092C336.993 84.8691 337.292 85.3146 337.516 85.9457C337.778 86.5768 337.909 87.1708 337.909 87.7277C337.871 91.2916 337.778 96.3591 337.629 102.93C337.479 109.464 337.386 113.77 337.348 115.849C337.311 117.334 337.292 121.863 337.292 129.437V159.062C332.846 157.28 328.548 155.127 324.4 152.602C323.877 152.305 323.466 151.693 323.167 150.765C322.906 149.837 322.775 148.908 322.775 147.98C322.887 139.664 323.167 127.321 323.616 110.949C323.69 107.385 324.045 96.0806 324.681 77.0359ZM360.498 129.437V56.8218C362.104 57.6385 364.384 58.7893 367.336 60.2743C370.288 61.7222 372.53 62.8359 374.062 63.6155V76.0336C374.062 100.721 374.081 114.606 374.118 117.687C374.156 119.32 373.875 120.657 373.277 121.696C372.717 122.699 371.708 123.534 370.251 124.202C369.316 124.611 368.345 125.093 367.336 125.65C366.327 126.17 365.131 126.82 363.749 127.599C362.403 128.379 361.32 128.991 360.498 129.437ZM362.403 53.3692C362.927 53.0351 363.749 52.5339 364.87 51.8657C365.991 51.1974 366.925 50.622 367.672 50.1394C368.42 49.6197 369.092 49.0813 369.69 48.5245C371.596 46.7796 373.595 45.9072 375.688 45.9072C377.78 45.8701 379.854 46.5383 381.909 47.9119C382.694 48.3946 383.554 48.8772 384.488 49.3598C385.422 49.8424 386.543 50.3993 387.851 51.0304C389.159 51.6244 390.224 52.1441 391.046 52.5896C390.037 53.1836 388.617 54.0374 386.786 55.1512C384.955 56.2278 383.348 57.1744 381.965 57.9912C380.583 58.7708 379.256 59.4761 377.986 60.1072C377.201 60.5156 375.931 60.2929 374.174 59.439C373.091 58.9193 369.167 56.896 362.403 53.3692ZM338.469 81.2124C337.498 80.6184 336.153 79.7831 334.434 78.7065C332.715 77.6299 331.127 76.6461 329.669 75.7551C328.249 74.8641 326.867 74.0103 325.521 73.1935C325.97 72.9337 327.633 71.987 330.51 70.3535C333.425 68.6829 335.648 67.4764 337.18 66.7339C338.525 66.1028 339.815 66.0843 341.048 66.6782C342.729 67.4578 346.877 69.6296 353.491 73.1935C345.083 77.6856 340.076 80.3585 338.469 81.2124Z" fill="black"/>
<path d="M227.755 155.811V172.852C227.755 173.743 227.737 175.079 227.699 176.861C227.662 178.606 227.644 180.184 227.644 181.595C227.644 182.968 227.699 184.286 227.811 185.548C228.071 188.63 226.772 190.931 223.915 192.453C221.318 193.864 217.848 195.999 213.507 198.857C213.21 199.043 212.932 199.266 212.672 199.526C212.413 199.748 212.079 200.045 211.671 200.417C211.262 200.788 210.947 201.085 210.724 201.308C212.543 203.164 215.492 205.169 219.574 207.322C223.655 209.438 226.494 211.146 228.089 212.445V226.311C228.163 228.576 227.403 230.154 225.807 231.045C225.585 231.156 221.596 233.254 213.841 237.337C213.841 236.298 213.823 234.831 213.786 232.938C213.748 231.007 213.73 229.355 213.73 227.982C213.767 226.608 213.823 225.309 213.897 224.084C213.971 222.599 213.711 221.411 213.118 220.52C212.561 219.629 211.615 218.868 210.279 218.237C209.129 217.717 203.86 215.174 194.473 210.607C194.436 211.239 194.38 212.278 194.306 213.726C194.232 215.174 194.195 216.232 194.195 216.9C194.269 229.56 194.399 239.045 194.584 245.356C194.621 246.73 194.38 247.825 193.861 248.642C193.341 249.496 192.469 250.238 191.245 250.869C190.206 251.389 185.902 253.784 178.333 258.053V183.488C184.455 180.035 193.267 175.098 204.769 168.675C216.309 162.215 223.971 157.927 227.755 155.811ZM214.843 178.365C214.361 178.513 213.748 178.68 213.006 178.866C212.264 179.014 211.671 179.163 211.225 179.311C210.78 179.46 210.372 179.627 210.001 179.813C205.289 182.411 200.614 185.14 195.976 187.999C195.419 188.333 194.9 188.797 194.417 189.391C193.972 189.985 193.694 190.542 193.583 191.061C192.84 195.442 192.97 199.284 193.972 202.589C194.269 202.44 194.918 202.18 195.92 201.809C196.959 201.401 197.72 201.048 198.202 200.751C198.944 200.342 200.651 199.322 203.322 197.688C205.994 196.017 208.09 194.811 209.611 194.068C213.173 192.361 214.917 189.391 214.843 185.158C214.843 184.564 214.843 183.933 214.843 183.265C214.843 182.597 214.843 181.78 214.843 180.815C214.843 179.85 214.843 179.033 214.843 178.365ZM174.103 258.22C172.508 257.292 170.207 255.937 167.202 254.155C164.233 252.373 162.044 251.073 160.634 250.257C160.597 248.957 160.505 244.187 160.356 235.945C160.208 227.703 160.115 222.209 160.078 219.462C160.041 216.677 160.004 212.148 159.967 205.874C159.929 199.563 159.967 194.013 160.078 189.224C160.226 184.435 160.412 179.571 160.634 174.634C168.018 179.089 172.341 181.743 173.602 182.597C174.381 183.117 174.771 184.138 174.771 185.66C174.734 187.961 174.66 191.247 174.548 195.516C174.437 199.786 174.363 202.756 174.326 204.426C174.251 209.178 174.233 212.724 174.27 215.062C174.344 219.666 174.418 226.608 174.493 235.889C174.604 245.171 174.697 252.113 174.771 256.716C174.771 256.753 174.548 257.255 174.103 258.22ZM176.441 179.868C169.725 175.71 165.18 172.907 162.805 171.459C172.155 166.225 188.499 157.129 211.838 144.173C213.544 145.101 215.919 146.419 218.962 148.127C222.004 149.797 224.249 151.022 225.696 151.802C220.909 155.032 215.993 158.113 210.947 161.046C205.938 163.942 199.519 167.487 191.69 171.682C183.861 175.84 178.778 178.569 176.441 179.868Z" fill="black"/>
<path d="M260.079 214.021C260.005 213.205 259.875 211.758 259.689 209.68C259.541 207.64 259.411 205.878 259.299 204.394C259.225 202.91 259.188 201.482 259.188 200.109C259.151 194.619 259.132 184.361 259.132 169.337C259.169 154.312 259.151 144.054 259.077 138.564C259.039 136.153 259.448 134.186 260.302 132.665C261.194 131.144 262.679 129.846 264.759 128.77C269.699 126.21 280.878 120.201 298.297 110.741C306.394 115.971 310.813 118.809 311.556 119.255C312.002 119.514 312.355 119.811 312.615 120.145C312.912 120.479 313.116 120.868 313.228 121.313C313.339 121.759 313.395 122.13 313.395 122.426C313.432 122.723 313.45 123.168 313.45 123.762C313.45 123.947 313.45 124.077 313.45 124.151V150.695V179.464C313.45 180.763 313.228 181.838 312.782 182.692C312.373 183.508 311.593 184.231 310.442 184.862C307.954 186.309 291.612 195.991 261.416 213.91C261.342 213.947 261.231 213.965 261.082 213.965C260.971 213.965 260.822 213.947 260.636 213.91C260.488 213.91 260.302 213.928 260.079 213.965V214.021ZM297.294 129.494C296.811 129.605 296.199 129.735 295.456 129.883C294.75 129.994 294.156 130.124 293.673 130.273C293.227 130.384 292.819 130.532 292.447 130.718C286.468 133.908 281.732 136.598 278.241 138.787C277.647 139.195 277.108 139.807 276.625 140.623C276.143 141.402 275.901 142.125 275.901 142.793C275.827 148.914 275.79 162.659 275.79 184.027C275.79 185.103 275.957 185.975 276.291 186.643C276.663 187.273 277.387 187.644 278.464 187.756C279.392 187.125 280.767 186.142 282.587 184.806C284.444 183.471 286.115 182.302 287.601 181.301C289.086 180.299 290.553 179.446 292.002 178.741C294.23 177.628 295.734 176.255 296.514 174.623C297.294 172.991 297.666 170.895 297.628 168.335C297.591 168.335 297.573 162.77 297.573 151.641L297.628 134.947C297.628 134.687 297.517 132.888 297.294 129.549V129.494ZM239.856 120.868C240.971 121.573 242.363 122.482 244.035 123.595C245.743 124.671 247.229 125.617 248.491 126.433C249.791 127.212 251.017 127.917 252.168 128.548C253.431 129.252 254.285 130.124 254.731 131.163C255.214 132.165 255.455 133.444 255.455 135.003C255.418 142.422 255.4 164.644 255.4 201.667V214.466C253.58 213.761 251.76 212.889 249.94 211.851C248.157 210.849 246.115 209.588 243.812 208.067C241.509 206.583 239.856 205.525 238.854 204.895C239.336 164.384 239.671 136.375 239.856 120.868ZM258.352 127.657C256.644 126.581 254.081 124.986 250.664 122.872C247.247 120.72 244.685 119.106 242.976 118.03C250.07 114.209 254.768 111.705 257.071 110.518C263.645 107.142 269.866 104.082 275.734 101.336C277.703 100.372 279.262 100.168 280.414 100.724C281.714 101.355 283.014 102.041 284.314 102.783C285.614 103.525 287.322 104.527 289.439 105.788C291.556 107.049 293.042 107.94 293.896 108.459C272.354 120.071 260.506 126.47 258.352 127.657Z" fill="black"/>
<path d="M439.618 57.8601C441.781 57.3404 444.635 56.0782 448.179 54.0735C451.76 52.0317 454.427 50.6952 456.18 50.0641C456.367 54.0364 456.553 58.2128 456.74 62.5934C452.711 64.9322 446.78 68.3847 438.946 72.951C439.058 73.9904 439.002 75.6239 438.778 77.8513C438.592 80.0788 438.611 82.1577 438.834 84.0882C439.058 86.0186 439.73 87.8377 440.849 89.5454C450.697 84.0139 462.13 77.6286 475.149 70.3894C475.708 75.9209 475.69 80.747 475.093 84.8678C475.018 85.3504 474.72 85.8701 474.198 86.427C473.675 86.9838 473.116 87.4293 472.519 87.7634C461.142 94.1858 446.537 102.316 428.707 112.154C428.52 112.228 427.121 112.803 424.51 113.88C424.286 111.653 424.174 110.335 424.174 109.926C423.988 93.7404 423.857 84.0139 423.783 80.747C423.783 79.559 423.652 77.6286 423.391 74.9557C423.167 72.2828 423.074 70.2409 423.111 68.8302C423.148 65.3777 423.242 60.4588 423.391 54.0735C423.577 47.6882 423.689 43.2519 423.727 40.7646C423.764 38.8712 424.585 37.4791 426.189 36.5881C429.21 34.8804 433.743 32.3189 439.786 28.9035C445.866 25.451 450.417 22.8708 453.438 21.1632C457.355 18.9357 461.347 16.7825 465.413 14.7036C465.487 14.6665 468.472 13.2558 474.365 10.4715C475.485 14.4437 475.485 18.6387 474.365 23.0565C474.142 23.9474 473.06 24.9498 471.12 26.0635C460.563 32.1889 451.163 37.4977 442.919 41.9897C441.352 42.8435 440.215 43.8087 439.506 44.8853C438.834 45.9619 438.611 47.3169 438.834 48.9504C438.984 50.027 439.002 50.9922 438.89 51.8461C438.778 52.6999 438.76 53.7022 438.834 54.8531C438.946 55.9668 439.207 56.9691 439.618 57.8601ZM420.593 114.047C415.52 111.226 410.41 108.386 405.262 105.527V30.0729C406.866 30.6297 408.47 31.3165 410.074 32.1333C411.678 32.9129 413.431 33.8595 415.334 34.9732C417.273 36.087 418.784 36.9222 419.866 37.4791C419.866 51.8461 419.884 60.4774 419.922 63.373C419.959 66.8998 420.071 71.9486 420.258 78.5196C420.444 85.0905 420.556 89.7495 420.593 92.4967C420.631 94.5385 420.649 96.7103 420.649 99.012C420.649 101.314 420.631 103.949 420.593 106.919C420.593 109.889 420.593 112.265 420.593 114.047ZM407.892 26.8431C421.321 19.4926 428.259 15.7059 428.707 15.4832C431.281 14.1467 435.701 11.8636 441.968 8.63384C448.235 5.36693 453.065 2.84251 456.46 1.06056C457.728 0.355208 458.829 0.00253117 459.761 0.00253117C460.731 -0.0345927 461.869 0.336646 463.175 1.11625C464.033 1.71023 464.946 2.28565 465.916 2.84251C466.886 3.39937 468.099 4.0676 469.553 4.8472C471.045 5.6268 472.146 6.22078 472.855 6.62915C472.519 6.81477 472.09 7.03751 471.568 7.29738C471.045 7.55724 470.598 7.79855 470.225 8.02129C469.852 8.20691 469.516 8.39253 469.218 8.57815C445.605 21.5715 431.467 29.4047 426.804 32.0776C425.051 33.0799 423.54 33.6182 422.272 33.6925C421.004 33.7296 419.511 33.247 417.796 32.2446C416.938 31.6507 416.005 31.0938 414.998 30.5741C413.991 30.0172 412.778 29.3861 411.361 28.6807C409.981 27.9754 408.824 27.3628 407.892 26.8431Z" fill="black"/>
<path d="M18.7342 515.005C18.5493 513.075 18.4569 511.942 18.4569 511.608C18.2721 476.934 18.1243 454.678 18.0134 444.84C17.9764 442.798 18.3276 441.146 19.0669 439.883C19.8062 438.621 21.0814 437.582 22.8927 436.765C23.8538 436.319 24.8334 435.8 25.8314 435.206C26.8665 434.612 28.0863 433.869 29.491 432.978C30.8956 432.05 32.0046 431.345 32.8178 430.862V442.668C32.8178 443.262 32.7809 445.526 32.7069 449.462C32.67 453.36 32.6884 455.606 32.7624 456.2C32.8363 458.019 33.2244 459.151 33.9268 459.597C34.6661 460.005 35.8305 459.801 37.42 458.984C38.8986 458.167 40.4511 457.295 42.0775 456.367C43.704 455.402 45.5338 454.325 47.5668 453.137C49.5999 451.912 51.134 450.984 52.169 450.353C54.0172 449.313 54.9044 447.587 54.8305 445.174C54.7565 443.169 54.6826 439.883 54.6087 435.317C54.5717 430.751 54.4978 427.242 54.3869 424.792C54.202 420.82 55.7915 418.073 59.1554 416.551C60.0795 416.142 61.0221 415.678 61.9832 415.158C62.9812 414.601 64.1826 413.933 65.5873 413.154C67.0289 412.337 68.1194 411.724 68.8587 411.316V486.939C67.5279 487.719 65.4394 488.907 62.5931 490.503C59.7838 492.099 57.6028 493.343 56.0503 494.234C56.0133 493.009 55.9579 491.394 55.884 489.389C55.847 487.347 55.7915 485.565 55.7176 484.043C55.6437 482.484 55.5513 481.036 55.4404 479.7C55.3664 478.883 55.4034 477.472 55.5513 475.467C55.6991 473.463 55.6252 471.699 55.3295 470.177C55.0338 468.618 54.3499 467.114 53.2779 465.667C43.4822 471.606 37.1242 475.56 34.204 477.528C33.7235 477.862 33.3538 478.493 33.0951 479.421C32.8363 480.349 32.7069 481.259 32.7069 482.15C32.67 483.932 32.6515 492.044 32.6515 506.485C31.099 507.413 28.7886 508.824 25.7205 510.717C22.6525 512.611 20.3237 514.04 18.7342 515.005ZM1.43457 430.973C8.60577 435.317 12.6904 437.842 13.6885 438.547C14.4278 439.104 14.8344 440.31 14.9083 442.167C14.9453 443.095 14.9637 447.271 14.9637 454.696V508.267V514.671C12.9676 514.114 10.491 512.982 7.53379 511.274C4.57659 509.604 2.54352 508.546 1.43457 508.1V430.973ZM36.5328 411.316C38.1223 412.244 40.4511 413.636 43.5192 415.492C46.6242 417.349 48.953 418.741 50.5056 419.669C50.6164 422.787 50.7643 427.317 50.9491 433.257C51.1709 439.159 51.3373 443.522 51.4482 446.343C46.4949 449.202 41.5231 452.079 36.5328 454.975V411.316ZM39.2497 408.532C43.2789 406.415 48.0843 403.891 53.6661 400.958C54.2205 401.255 58.5454 403.613 66.6408 408.03C64.238 409.441 59.4696 412.207 52.3353 416.328C50.8198 415.4 48.5649 414.063 45.5707 412.318C42.6135 410.536 40.5065 409.274 39.2497 408.532ZM29.5464 428.356C28.1418 429.21 23.9462 431.735 16.9599 435.93C14.8529 434.704 10.5095 432.124 3.92971 428.189C9.69624 425.071 13.5406 423.047 15.4628 422.119C16.5717 421.599 17.6807 421.618 18.7896 422.175C19.8246 422.732 20.9151 423.344 22.061 424.013C23.2069 424.644 24.5192 425.405 25.9978 426.296C27.4764 427.15 28.6593 427.836 29.5464 428.356Z" fill="black"/>
<path d="M97.7588 468.382C97.7588 449.901 97.7402 438.878 97.7029 435.316C97.5162 420.768 97.2549 408.261 96.919 397.796C96.8443 395.569 96.975 394.122 97.3109 393.454C97.6469 392.749 98.7107 391.914 100.502 390.949C104.982 388.537 111.701 384.881 120.659 379.982C129.618 375.084 136.337 371.428 140.816 369.016C141.525 368.608 142.589 368.069 144.008 367.401C145.426 366.696 146.453 366.177 147.087 365.843C147.124 366.14 147.199 366.511 147.311 366.956C147.423 367.364 147.498 367.717 147.535 368.014C147.61 368.311 147.647 368.589 147.647 368.849C147.647 373.748 147.647 383.898 147.647 399.299C147.684 414.7 147.722 426.595 147.759 434.982C147.759 437.802 146.583 439.843 144.232 441.105C143.074 441.699 139.883 443.499 134.657 446.505C133.911 431.252 133.481 422.419 133.369 420.007C133.183 420.044 132.66 420.119 131.802 420.23C130.943 420.341 130.346 420.49 130.01 420.675C128.517 421.492 126.93 422.382 125.251 423.347C123.571 424.275 121.704 425.333 119.651 426.52C117.598 427.671 116.012 428.561 114.892 429.192C113.138 430.157 112.261 432.031 112.261 434.815C112.261 447.47 112.279 454.595 112.317 456.191C112.354 457.601 112.13 458.733 111.645 459.587C111.197 460.44 110.357 461.183 109.125 461.813C108.267 462.259 104.478 464.448 97.7588 468.382ZM114.332 415.22C125.754 408.169 131.634 404.532 131.97 404.309C132.828 403.752 133.257 403.066 133.257 402.249C133.295 400.876 133.313 396.367 133.313 388.722C131.708 389.613 129.618 390.763 127.042 392.173C124.467 393.547 122.19 394.79 120.211 395.903C118.233 396.979 116.385 398 114.668 398.965C114.258 399.188 113.884 399.559 113.548 400.078C113.25 400.561 113.1 401.006 113.1 401.414C113.1 401.971 113.063 403.029 112.988 404.587C112.914 406.109 112.876 407.296 112.876 408.15C112.876 408.966 112.988 410.061 113.212 411.434C113.436 412.77 113.81 414.032 114.332 415.22ZM93.8954 392.062V468.327C91.6558 466.731 86.8965 463.391 79.6177 458.306V383.044C86.1127 386.161 90.8719 389.167 93.8954 392.062ZM81.6894 379.648C106.661 366.437 121.07 358.829 124.915 356.825C125.848 356.305 127.584 355.6 130.122 354.709C131.204 354.301 131.988 354.227 132.473 354.487C134.265 355.489 138.67 358.049 145.687 362.169C136.766 367.142 130.794 370.463 127.77 372.133C126.314 372.913 122.339 375.046 115.844 378.535C109.349 382.023 104.384 384.751 100.95 386.718C99.4572 387.572 98.1321 388.017 96.975 388.054C95.8551 388.054 94.5673 387.572 93.1116 386.607C92.1037 385.865 91.0026 385.141 89.8081 384.436C88.6509 383.693 87.2325 382.84 85.5527 381.875C83.873 380.91 82.5852 380.168 81.6894 379.648Z" fill="black"/>
<path d="M192.953 394.932C195.709 393.373 199.397 391.294 204.015 388.695C208.671 386.06 212.898 383.684 216.697 381.568C220.496 379.414 224.109 377.373 227.535 375.442C227.722 376.482 227.852 377.503 227.926 378.505C228.038 379.507 228.094 380.658 228.094 381.957C228.094 383.22 228.094 384.129 228.094 384.686C228.094 385.206 228.057 386.282 227.982 387.916C227.908 389.549 227.871 390.477 227.871 390.7C227.871 391.48 227.256 392.222 226.027 392.927C219.807 396.454 210.98 401.429 199.546 407.851C188.112 414.273 180.756 418.413 177.478 420.269C176.919 418.524 176.51 407.406 176.249 386.913C175.988 366.384 176.081 352.426 176.528 345.038C184.35 340.769 201.408 331.414 227.703 316.973V331.952C212.283 340.936 202.078 346.783 197.088 349.493C195.263 350.495 193.959 351.702 193.177 353.112C192.432 354.486 192.078 356.194 192.115 358.235C192.153 361.985 192.171 367.052 192.171 373.438C192.171 379.823 192.171 384.89 192.171 388.64C192.171 389.197 192.208 389.79 192.283 390.422C192.357 391.016 192.469 391.777 192.618 392.705C192.767 393.596 192.879 394.338 192.953 394.932ZM158.595 336.351C165.932 340.732 170.029 343.182 170.886 343.702C171.295 343.924 171.612 344.184 171.835 344.481C172.096 344.741 172.282 345.094 172.394 345.539C172.506 345.948 172.562 346.263 172.562 346.486C172.599 346.671 172.599 347.061 172.562 347.655C172.562 348.249 172.562 348.602 172.562 348.713C172.562 351.498 172.543 356.416 172.506 363.47C172.506 370.486 172.524 375.387 172.562 378.171C172.599 382.626 172.692 388.955 172.841 397.16C173.027 405.364 173.139 411.062 173.176 414.255C173.176 414.886 173.139 415.888 173.065 417.262C172.99 418.636 172.934 419.656 172.897 420.325C172.189 419.842 171.258 419.174 170.104 418.32C168.949 417.466 167.943 416.761 167.087 416.204C166.267 415.647 165.448 415.202 164.629 414.867C162.021 413.754 160.327 412.232 159.545 410.301C158.762 408.408 158.427 405.921 158.539 402.839C158.651 400.426 158.707 397.902 158.707 395.266C158.744 392.593 158.725 389.568 158.651 386.189C158.614 382.774 158.595 380.231 158.595 378.561V336.351ZM226.474 313.464C218.354 317.919 206.66 324.342 191.389 332.732C190.383 333.288 188.279 334.421 185.076 336.128C181.91 337.799 179.471 339.135 177.757 340.138C175.597 341.363 173.549 341.326 171.612 340.026C170.308 339.135 168.316 337.892 165.634 336.295C162.99 334.699 161.258 333.641 160.439 333.121C161.295 332.639 163.269 331.525 166.36 329.78C169.489 328.035 171.873 326.736 173.511 325.882C194.406 314.671 205.319 308.805 206.25 308.286C207.74 307.469 209.08 306.894 210.272 306.559C211.464 306.225 212.73 306.188 214.071 306.448C215.412 306.708 216.734 307.358 218.038 308.397C218.745 308.954 219.528 309.511 220.384 310.068C221.278 310.587 222.358 311.2 223.625 311.905C224.891 312.573 225.841 313.093 226.474 313.464ZM212.172 366.588C217.461 369.113 221.669 371.136 224.798 372.658C215.71 377.707 206.101 383.053 195.97 388.695C195.97 381.902 196.007 378.022 196.082 377.057C196.194 376.055 197.032 375.108 198.596 374.217C200.719 372.955 205.244 370.412 212.172 366.588Z" fill="black"/>
<path d="M289.696 323.713C288.55 324.461 286.998 325.469 285.039 326.74C283.117 328.01 281.361 329.149 279.772 330.158C278.219 331.167 276.722 332.101 275.281 332.96C273.026 334.305 271.935 336.435 272.009 339.349C272.046 341.553 272.046 345.177 272.009 350.221C271.972 355.227 271.991 358.832 272.065 361.036C272.102 362.456 271.862 363.614 271.344 364.511C270.864 365.408 270.032 366.155 268.849 366.753C267.666 367.35 263.489 369.667 256.319 373.702V297.262C257.871 296.403 260.274 295.039 263.526 293.171C266.816 291.303 269.348 289.865 271.122 288.856V315.756C272.194 316.353 273.026 316.559 273.617 316.372C274.209 316.185 274.745 315.55 275.225 314.467C276.297 312.001 278.422 307.182 281.601 300.008C284.78 292.835 287.201 287.287 288.865 283.364C290.713 279.031 293.577 275.836 297.458 273.781C298.013 273.483 298.623 273.146 299.288 272.773C299.953 272.399 300.73 271.969 301.617 271.484C302.541 270.961 303.317 270.512 303.945 270.139C303.391 272.492 303.095 273.725 303.058 273.837C301.912 276.453 299.843 281.123 296.849 287.848C293.891 294.572 291.618 299.784 290.029 303.483C289.585 304.492 287.996 308.657 285.261 315.98C285.187 316.129 285.131 316.316 285.094 316.54C285.094 316.764 285.076 317.101 285.039 317.549C285.039 317.997 285.02 318.427 284.983 318.838C286.351 318.016 289.474 316.148 294.354 313.234C299.233 310.282 303.003 308.003 305.664 306.397C305.812 306.658 305.997 306.976 306.219 307.35C306.477 307.723 306.662 308.022 306.773 308.246C306.884 308.47 306.939 308.695 306.939 308.919C306.976 317.063 306.995 329.374 306.995 345.849C297.606 351.192 292.524 354.087 291.748 354.536C291.748 338.247 291.729 328.552 291.692 325.451C291.692 325.301 291.6 325.171 291.415 325.058C291.267 324.909 291.008 324.704 290.639 324.442C290.269 324.18 289.955 323.938 289.696 323.713ZM251.994 372.861C250.146 371.778 247.743 370.376 244.786 368.658C241.866 366.939 239.888 365.762 238.854 365.127V288.744C239.26 288.968 240.166 289.473 241.57 290.257C242.975 291.042 244.047 291.584 244.786 291.882C247.891 293.19 250.035 295.002 251.218 297.318C252.4 299.597 252.936 302.605 252.826 306.341C252.641 312.206 252.53 318.408 252.493 324.946C252.493 331.447 252.511 338.788 252.548 346.97C252.585 355.152 252.604 361.354 252.604 365.576C252.604 366.061 252.4 368.49 251.994 372.861ZM288.144 276.135C286.85 279.012 284.817 283.458 282.045 289.473C279.31 295.488 277.24 300.064 275.835 303.203C275.724 303.165 275.558 303.147 275.336 303.147C275.114 303.147 274.948 303.128 274.837 303.091V285.774C274.32 285.438 273.488 284.896 272.342 284.149C271.233 283.364 270.328 282.729 269.625 282.244C270.365 280.45 271.418 277.854 272.786 274.454C274.153 271.054 275.04 268.831 275.447 267.785C276.186 268.271 278.053 269.504 281.047 271.484C284.078 273.464 286.443 275.014 288.144 276.135ZM242.347 285.998C249.222 282.412 253.362 280.282 254.766 279.61C255.764 279.161 256.836 279.236 257.982 279.834C258.647 280.17 262.159 282.206 268.516 285.942C267.925 286.278 263.378 288.931 254.877 293.9C253.546 293.041 251.476 291.752 248.667 290.033C245.895 288.277 243.788 286.932 242.347 285.998ZM304.444 265.543C302.781 266.477 300.452 267.804 297.458 269.522C294.464 271.241 292.265 272.492 290.861 273.277C284.577 269.578 280.566 267.206 278.829 266.16C279.31 265.786 279.827 265.413 280.381 265.039C280.936 264.628 281.416 264.292 281.823 264.03C282.267 263.731 282.821 263.395 283.486 263.022C284.152 262.648 284.651 262.368 284.983 262.181C285.316 261.994 285.871 261.714 286.647 261.34C287.423 260.929 287.922 260.687 288.144 260.612C288.366 260.5 288.92 260.238 289.807 259.827C290.694 259.379 291.212 259.117 291.36 259.043C291.877 258.781 292.801 259.005 294.132 259.715C295.167 260.276 298.604 262.218 304.444 265.543Z" fill="black"/>
<path d="M353.911 272.69C356.053 272.167 358.877 270.897 362.385 268.88C365.929 266.825 368.569 265.48 370.305 264.845C370.489 268.842 370.674 273.045 370.859 277.453C366.871 279.807 361 283.281 353.247 287.876C353.357 288.922 353.302 290.565 353.08 292.807C352.896 295.048 352.914 297.14 353.136 299.083C353.357 301.026 354.022 302.856 355.13 304.575C364.877 299.008 376.194 292.583 389.08 285.298C389.634 290.864 389.615 295.721 389.024 299.867C388.95 300.353 388.655 300.876 388.138 301.436C387.621 301.997 387.067 302.445 386.477 302.781C375.215 309.244 360.76 317.425 343.111 327.325C342.927 327.4 341.542 327.979 338.958 329.062C338.736 326.821 338.625 325.495 338.625 325.084C338.441 308.796 338.312 299.008 338.238 295.721C338.238 294.525 338.108 292.583 337.85 289.893C337.628 287.203 337.536 285.149 337.573 283.729C337.61 280.255 337.702 275.305 337.85 268.88C338.035 262.454 338.145 257.99 338.182 255.487C338.219 253.582 339.032 252.181 340.619 251.284C343.61 249.566 348.096 246.988 354.077 243.551C360.096 240.077 364.6 237.481 367.591 235.762C371.468 233.521 375.418 231.354 379.443 229.262C379.517 229.225 382.471 227.805 388.304 225.003C389.412 229.001 389.412 233.222 388.304 237.667C388.083 238.564 387.012 239.573 385.092 240.693C374.643 246.857 365.339 252.199 357.179 256.72C355.628 257.579 354.502 258.55 353.8 259.634C353.136 260.717 352.914 262.08 353.136 263.724C353.284 264.808 353.302 265.779 353.191 266.638C353.08 267.497 353.062 268.506 353.136 269.664C353.247 270.785 353.505 271.793 353.911 272.69ZM335.081 329.23C330.059 326.391 325.001 323.533 319.906 320.657V244.728C321.493 245.288 323.081 245.979 324.669 246.801C326.256 247.586 327.992 248.538 329.875 249.659C331.795 250.78 333.29 251.62 334.361 252.181C334.361 266.638 334.379 275.324 334.416 278.238C334.453 281.787 334.564 286.867 334.749 293.479C334.933 300.092 335.044 304.78 335.081 307.544C335.118 309.599 335.136 311.784 335.136 314.101C335.136 316.417 335.118 319.069 335.081 322.058C335.081 325.046 335.081 327.437 335.081 329.23ZM322.509 241.478C335.801 234.081 342.668 230.271 343.111 230.047C345.659 228.702 350.034 226.404 356.237 223.154C362.44 219.867 367.222 217.326 370.582 215.533C371.837 214.823 372.926 214.469 373.849 214.469C374.809 214.431 375.935 214.805 377.228 215.589C378.077 216.187 378.981 216.766 379.941 217.326C380.901 217.887 382.101 218.559 383.541 219.344C385.018 220.128 386.107 220.726 386.809 221.137C386.477 221.324 386.052 221.548 385.535 221.809C385.018 222.071 384.575 222.314 384.206 222.538C383.837 222.724 383.504 222.911 383.209 223.098C359.837 236.173 345.844 244.056 341.228 246.745C339.493 247.754 337.998 248.296 336.742 248.37C335.487 248.408 334.01 247.922 332.312 246.913C331.462 246.316 330.539 245.755 329.542 245.232C328.546 244.672 327.346 244.037 325.943 243.327C324.576 242.617 323.432 242.001 322.509 241.478Z" fill="black"/>
<path d="M469.478 180.916V197.956C469.478 198.847 469.459 200.184 469.422 201.966C469.385 203.711 469.366 205.289 469.366 206.699C469.366 208.073 469.422 209.391 469.533 210.653C469.793 213.734 468.495 216.036 465.638 217.558C463.04 218.969 459.571 221.104 455.23 223.962C454.933 224.148 454.655 224.371 454.395 224.63C454.135 224.853 453.801 225.15 453.393 225.521C452.985 225.893 452.67 226.19 452.447 226.412C454.265 228.269 457.215 230.273 461.296 232.427C465.378 234.543 468.216 236.251 469.812 237.55V251.416C469.886 253.681 469.125 255.258 467.53 256.149C467.307 256.261 463.319 258.358 455.564 262.442C455.564 261.403 455.545 259.936 455.508 258.043C455.471 256.112 455.453 254.46 455.453 253.087C455.49 251.713 455.545 250.414 455.62 249.188C455.694 247.703 455.434 246.515 454.84 245.625C454.284 244.734 453.338 243.972 452.002 243.341C450.852 242.822 445.583 240.279 436.196 235.712C436.159 236.343 436.103 237.383 436.029 238.831C435.955 240.279 435.917 241.337 435.917 242.005C435.992 254.664 436.121 264.15 436.307 270.461C436.344 271.835 436.103 272.93 435.583 273.746C435.064 274.6 434.192 275.343 432.968 275.974C431.929 276.494 427.625 278.888 420.056 283.158V208.593C426.178 205.14 434.99 200.202 446.492 193.78C458.031 187.32 465.693 183.032 469.478 180.916ZM456.566 203.469C456.083 203.618 455.471 203.785 454.729 203.971C453.987 204.119 453.393 204.268 452.948 204.416C452.503 204.565 452.095 204.732 451.724 204.917C447.011 207.516 442.336 210.245 437.698 213.103C437.142 213.437 436.622 213.901 436.14 214.495C435.695 215.089 435.417 215.646 435.305 216.166C434.563 220.547 434.693 224.389 435.695 227.693C435.992 227.545 436.641 227.285 437.643 226.914C438.682 226.505 439.442 226.153 439.925 225.856C440.667 225.447 442.373 224.426 445.045 222.793C447.716 221.122 449.813 219.916 451.334 219.173C454.896 217.465 456.64 214.495 456.566 210.263C456.566 209.669 456.566 209.038 456.566 208.37C456.566 207.702 456.566 206.885 456.566 205.92C456.566 204.954 456.566 204.138 456.566 203.469ZM415.826 283.325C414.23 282.397 411.93 281.041 408.924 279.259C405.956 277.478 403.767 276.178 402.357 275.361C402.32 274.062 402.227 269.292 402.079 261.05C401.93 252.808 401.838 247.314 401.801 244.566C401.763 241.782 401.726 237.253 401.689 230.979C401.652 224.668 401.689 219.117 401.801 214.328C401.949 209.539 402.134 204.676 402.357 199.738C409.741 204.193 414.063 206.848 415.325 207.702C416.104 208.221 416.494 209.242 416.494 210.764C416.457 213.066 416.382 216.352 416.271 220.621C416.16 224.89 416.085 227.86 416.048 229.531C415.974 234.283 415.956 237.828 415.993 240.167C416.067 244.771 416.141 251.713 416.215 260.994C416.327 270.275 416.419 277.218 416.494 281.821C416.494 281.858 416.271 282.359 415.826 283.325ZM418.163 204.973C411.447 200.815 406.902 198.012 404.528 196.564C413.878 191.33 430.222 182.234 453.56 169.278C455.267 170.206 457.642 171.524 460.684 173.231C463.727 174.902 465.971 176.127 467.419 176.907C462.632 180.137 457.716 183.218 452.67 186.151C447.661 189.046 441.242 192.592 433.413 196.787C425.584 200.945 420.501 203.674 418.163 204.973Z" fill="black"/>
<path d="M497.463 198.929C497.871 189.871 498.148 183.022 498.296 178.382C498.445 173.111 498.482 169.176 498.408 166.577C498.371 165.278 498.574 164.22 499.018 163.403C499.5 162.55 500.296 161.826 501.406 161.232C503.813 159.932 513.828 154.364 531.451 144.527C537.967 140.889 543.058 138.049 546.723 136.007C546.797 137.826 546.908 140.276 547.056 143.358C547.241 146.439 547.352 148.536 547.389 149.65C545.945 150.466 543.872 151.636 541.169 153.158C538.504 154.68 536.06 156.072 533.839 157.334C531.617 158.596 529.507 159.784 527.508 160.898C523.361 163.199 519.437 165.259 515.734 167.078C512.958 168.452 511.643 170.642 511.791 173.649C511.791 173.835 511.81 174.447 511.847 175.486C511.884 176.526 511.921 177.25 511.958 177.658C512.032 178.029 512.143 178.605 512.291 179.384C512.476 180.164 512.754 180.851 513.124 181.445C513.532 182.001 514.031 182.54 514.624 183.059C530.099 174.781 541.225 168.823 548 165.185V174.261C547.815 191.969 547.723 202.604 547.723 206.168C547.723 207.504 547.537 208.599 547.167 209.453C546.797 210.27 546.057 210.993 544.946 211.625C541.058 213.852 526.008 222.631 499.796 237.962C499.5 238.148 498.833 238.445 497.797 238.853C497.797 230.427 497.834 225.582 497.908 224.32C497.945 223.504 498.852 222.613 500.629 221.647C505.812 218.678 516.401 212.683 532.395 203.662V180.275C522.621 185.287 510.977 191.523 497.463 198.985V198.929ZM545.168 132.388C538.356 136.36 533.635 139.089 531.007 140.573C528.711 141.873 523.954 144.508 516.734 148.48C509.552 152.452 504.017 155.571 500.129 157.835C498.611 158.689 497.278 159.153 496.131 159.227C495.02 159.264 493.706 158.819 492.188 157.891C491.336 157.26 490.411 156.666 489.411 156.109C488.448 155.515 487.189 154.81 485.635 153.993C484.08 153.139 482.95 152.508 482.247 152.1C486.542 149.39 488.893 147.924 489.3 147.701C490.596 146.958 496.057 143.877 505.683 138.457C515.309 133.038 522.639 128.88 527.674 125.985C529.192 125.131 530.562 124.741 531.784 124.815C533.006 124.852 534.283 125.335 535.616 126.263C536.505 126.894 539.689 128.936 545.168 132.388ZM529.174 186.4C529.174 187.44 529.192 188.869 529.229 190.688C529.266 192.47 529.266 193.973 529.229 195.198C529.229 196.423 529.192 197.592 529.118 198.706C529.081 199.263 528.859 199.857 528.452 200.488C528.045 201.082 527.582 201.527 527.064 201.824C516.771 207.801 507.127 213.258 498.13 218.195C497.649 218.455 497.019 218.585 496.242 218.585C495.501 218.622 494.89 218.511 494.409 218.251C493.817 217.954 489.781 215.801 482.302 211.792C487.115 209.193 494.705 205.091 505.072 199.486C515.438 193.843 523.472 189.481 529.174 186.4ZM494.076 198.929C493.224 198.409 491.836 197.593 489.911 196.479C487.985 195.365 486.431 194.456 485.246 193.75C484.061 193.008 482.932 192.266 481.858 191.523C481.34 191.152 480.896 190.595 480.525 189.853C480.155 189.11 479.97 188.423 479.97 187.792C479.896 183.115 479.859 172.238 479.859 155.162C480.673 155.645 482.765 156.814 486.134 158.67C489.503 160.526 492.021 161.956 493.687 162.958C494.279 163.329 494.576 164.072 494.576 165.185C494.465 175.171 494.298 186.419 494.076 198.929ZM493.298 237.851C492.632 237.443 491.41 236.719 489.633 235.679C487.893 234.64 486.449 233.768 485.301 233.062C484.191 232.357 483.117 231.652 482.08 230.946C481.562 230.575 481.118 230.018 480.747 229.276C480.377 228.571 480.155 227.884 480.081 227.216C480.007 226.213 479.97 222.241 479.97 215.3C483.746 216.673 488.189 219.049 493.298 222.427C494.002 222.91 494.316 223.986 494.242 225.657C494.168 227.327 493.854 231.392 493.298 237.851Z" fill="black"/>
</svg>
