<svg width="1548" height="1063" viewBox="0 0 1548 1063" fill="none" xmlns="http://www.w3.org/2000/svg">
<g clip-path="url(#clip0_1_862)">
<path d="M1323.33 325.63H1120.97V410.54H1323.33V325.63Z" fill="#FBF3C9"/>
<path d="M1099.01 325.63H896.65V410.54H1099.01V325.63Z" fill="#FBF3C9"/>
<path d="M202.36 325.63H0V410.54H202.36V325.63Z" fill="#FBF3C9"/>
<path d="M650.75 109.33H448.39V194.24H650.75V109.33Z" fill="#FBF3C9"/>
<path d="M426.55 109.33H224.19V194.24H426.55V109.33Z" fill="#FBF3C9"/>
<path d="M202.36 109.33H0V194.24H202.36V109.33Z" fill="#FBF3C9"/>
<path d="M313.83 217.73H111.47V302.64H313.83V217.73Z" fill="#FDE493"/>
<path d="M313.83 1.92999H111.47V86.84H313.83V1.92999Z" fill="#FDE493"/>
<path d="M763.47 217.73H561.11V302.64H763.47V217.73Z" fill="#FDE493"/>
<path d="M539.28 217.73H336.92V302.64H539.28V217.73Z" fill="#FDE493"/>
<path d="M538.02 0H335.66V84.91H538.02V0Z" fill="#FDE493"/>
<path d="M874.94 109.33H672.58V194.24H874.94V109.33Z" fill="#FDE493"/>
<path d="M762.21 0.919983H559.85V85.83H762.21V0.919983Z" fill="#FDE493"/>
<path d="M1099.13 109.33H896.77V194.24H1099.13V109.33Z" fill="#FBF3C9"/>
<path d="M538.65 433.53H336.29V518.44H538.65V433.53Z" fill="#FDD34A"/>
<path d="M650.75 325.63H448.39V410.54H650.75V325.63Z" fill="#FDD34A"/>
<path d="M874.94 325.63H672.58V410.54H874.94V325.63Z" fill="#FDD34A"/>
<path d="M986.41 433.53H784.05V518.44H986.41V433.53Z" fill="#FDD34A"/>
<path d="M1211.86 433.53H1009.5V518.44H1211.86V433.53Z" fill="#FDE493"/>
<path d="M1099.13 541.43H896.77V626.34H1099.13V541.43Z" fill="#FDD34A"/>
<path d="M650.75 757.23H448.39V842.14H650.75V757.23Z" fill="#FDE493"/>
<path d="M538.02 649.33H335.66V734.24H538.02V649.33Z" fill="#FDE493"/>
<path d="M763.47 433.53H561.11V518.44H763.47V433.53Z" fill="#FDE493"/>
<path d="M874.94 538.47H672.58V623.38H874.94V538.47Z" fill="#FDE493"/>
<path d="M650.75 538.47H448.39V623.38H650.75V538.47Z" fill="#FBF3C9"/>
<path d="M987.04 649.33H784.68V734.24H987.04V649.33Z" fill="#FBF3C9"/>
<path d="M1323.33 541.43H1120.97V626.34H1323.33V541.43Z" fill="#FBF3C9"/>
<path d="M426.55 538.47H224.19V623.38H426.55V538.47Z" fill="#FBF3C9"/>
<path d="M426.55 757.23H224.19V842.14H426.55V757.23Z" fill="#FBF3C9"/>
<path d="M536.87 867.54H334.51V952.45H536.87V867.54Z" fill="#FBF3C9"/>
<path d="M650.75 977.85H448.39V1062.76H650.75V977.85Z" fill="#FBF3C9"/>
<path d="M988.24 866.33H785.88V951.24H988.24V866.33Z" fill="#FBF3C9"/>
<path d="M1099.13 973.02H896.77V1057.93H1099.13V973.02Z" fill="#FBF3C9"/>
<path d="M1547.52 973.02H1345.16V1057.93H1547.52V973.02Z" fill="#FBF3C9"/>
<path d="M1547.52 757.23H1345.16V842.14H1547.52V757.23Z" fill="#FBF3C9"/>
<path d="M1436.05 649.33H1233.69V734.24H1436.05V649.33Z" fill="#FBF3C9"/>
<path d="M313.83 433.53H111.47V518.44H313.83V433.53Z" fill="#FBF3C9"/>
<path d="M313.83 649.33H111.47V734.24H313.83V649.33Z" fill="#FBF3C9"/>
<path d="M986.41 0.919983H784.05V85.83H986.41V0.919983Z" fill="#FBF3C9"/>
<path d="M1211.86 649.33H1009.5V734.24H1211.86V649.33Z" fill="#FDE493"/>
<path d="M1323.33 757.23H1120.97V842.14H1323.33V757.23Z" fill="#FDE493"/>
<path d="M1436.05 865.12H1233.69V950.03H1436.05V865.12Z" fill="#FDE493"/>
<path d="M1323.33 973.02H1120.97V1057.93H1323.33V973.02Z" fill="#FDE493"/>
<path d="M874.94 757.23H672.58V842.14H874.94V757.23Z" fill="#FDE493"/>
<path d="M762.21 865.12H559.85V950.03H762.21V865.12Z" fill="#FDE493"/>
<path d="M874.94 973.02H672.58V1057.93H874.94V973.02Z" fill="#FDE493"/>
<path d="M762.21 649.33H559.85V734.24H762.21V649.33Z" fill="#FDD34A"/>
<path d="M1099.13 757.23H896.77V842.14H1099.13V757.23Z" fill="#FDD34A"/>
<path d="M1211.86 865.12H1009.5V950.03H1211.86V865.12Z" fill="#FDD34A"/>
</g>
<defs>
<clipPath id="clip0_1_862">
<rect width="1547.52" height="1062.76" fill="white"/>
</clipPath>
</defs>
</svg>
